<svg width="92" height="87" viewBox="0 0 92 87" fill="none" xmlns="http://www.w3.org/2000/svg">
<g clip-path="url(#clip0)">
<path d="M77.8194 28.574C77.8175 28.574 77.8175 28.574 77.8156 28.574H1.80168C1.08335 28.574 0.499947 29.1491 0.498047 29.8595C0.498047 29.8614 0.498047 29.8614 0.498047 29.8633V65.9496C0.498047 66.6601 1.07955 67.2371 1.79788 67.239C1.79978 67.239 1.79978 67.239 1.80168 67.239H53.4911C54.2113 67.239 54.7948 66.662 54.7948 65.9496C54.7948 65.2373 54.2113 64.6603 53.4911 64.6603H3.10532V31.1526H76.5138V34.3741C76.5138 35.0846 77.0953 35.6616 77.8137 35.6634C77.8156 35.6634 77.8156 35.6634 77.8175 35.6634C78.5358 35.6634 79.1192 35.0883 79.1211 34.3779C79.1211 34.376 79.1211 34.376 79.1211 34.3741V29.8633C79.1211 29.1529 78.5377 28.5759 77.8194 28.574Z" fill="url(#paint0_linear)"/>
<path d="M68.9809 22.5915L8.16985 9.05916C7.83159 8.98398 7.47812 9.04412 7.18547 9.22831C6.89281 9.4125 6.68758 9.70383 6.61156 10.0365L3.57101 23.5689C3.41518 24.2643 3.85796 24.9522 4.56109 25.1063C5.26422 25.2604 5.95974 24.8225 6.11557 24.1271L8.87108 11.8558L68.4089 25.1044C68.504 25.127 68.599 25.1364 68.6959 25.1364C69.4161 25.1345 69.9976 24.5575 69.9957 23.8452C69.9957 23.2456 69.5738 22.725 68.9809 22.5915Z" fill="url(#paint1_linear)"/>
<path d="M61.5963 15.1356L25.1096 0.0996599C24.4749 -0.16159 23.7452 0.107178 23.4373 0.714255L20.3967 6.72864C20.0528 7.35639 20.2903 8.14202 20.925 8.48033C21.5598 8.82052 22.3541 8.58558 22.6962 7.95783C22.7095 7.9334 22.7228 7.90897 22.7342 7.88265V7.88641L25.2293 2.94898L60.5891 17.5207C61.2542 17.7951 62.02 17.485 62.2975 16.8253C62.5768 16.1675 62.2633 15.41 61.5963 15.1356Z" fill="url(#paint2_linear)"/>
<path d="M62.5178 34.5884H50.4506C49.7304 34.5884 49.147 35.1654 49.147 35.8777C49.147 36.59 49.7304 37.1671 50.4506 37.1671H62.5178C63.238 37.1671 63.8214 36.59 63.8214 35.8777C63.8214 35.1654 63.238 34.5884 62.5178 34.5884Z" fill="#002476"/>
<path d="M38.2903 34.6748C30.9018 34.6748 24.9119 40.599 24.9119 47.9065C24.9195 55.2102 30.9056 61.1306 38.2903 61.1381C45.6789 61.1381 51.6688 55.2139 51.6688 47.9065C51.6688 40.599 45.6789 34.6748 38.2903 34.6748ZM38.2903 58.7324C32.2453 58.7324 27.3443 53.8851 27.3443 47.9065C27.3519 41.9297 32.2472 37.0862 38.2903 37.0806C44.3353 37.0806 49.2363 41.9278 49.2363 47.9065C49.2363 53.8851 44.3353 58.7324 38.2903 58.7324Z" fill="#002476"/>
<path d="M74.777 38.8848C66.7195 38.8848 58.054 40.768 58.054 44.8992V80.9855C58.054 85.1166 66.7195 86.9999 74.777 86.9999C82.8345 86.9999 91.5 85.1166 91.5 80.9855V44.8992C91.5 40.768 82.8345 38.8848 74.777 38.8848ZM88.4595 80.9629C88.2296 81.7974 83.6706 83.9927 74.777 83.9927C65.8834 83.9927 61.3245 81.7974 61.0945 80.9855V78.6211C64.3289 80.2337 69.6727 80.9855 74.777 80.9855C79.8813 80.9855 85.2251 80.2262 88.4595 78.6211V80.9629ZM88.4595 74.9485C88.2296 75.783 83.6706 77.9783 74.777 77.9783C65.8834 77.9783 61.3245 75.783 61.0945 74.9711V72.6067C64.3289 74.2193 69.6727 74.9711 74.777 74.9711C79.8813 74.9711 85.2251 74.2118 88.4595 72.6067V74.9485ZM88.4595 68.9342C88.2296 69.7686 83.6706 71.9639 74.777 71.9639C65.8834 71.9639 61.3245 69.7687 61.0945 68.9567V66.5923C64.3289 68.2049 69.6727 68.9567 74.777 68.9567C79.8813 68.9567 85.2251 68.1974 88.4595 66.5923V68.9342ZM88.4595 62.9198C88.2296 63.7543 83.6706 65.9495 74.777 65.9495C65.8834 65.9495 61.3245 63.7543 61.0945 62.9423V60.5779C64.3289 62.1905 69.6727 62.9423 74.777 62.9423C79.8813 62.9423 85.2251 62.183 88.4595 60.5779V62.9198ZM88.4595 56.9054C88.2296 57.7399 83.6706 59.9351 74.777 59.9351C65.8834 59.9351 61.3245 57.7399 61.0945 56.9279V54.5635C64.3289 56.1686 69.6727 56.9279 74.777 56.9279C79.8813 56.9279 85.2251 56.1686 88.4595 54.5635V56.9054ZM88.4595 50.891C88.2296 51.7255 83.6706 53.9207 74.777 53.9207C65.8834 53.9207 61.3245 51.7255 61.0945 50.9135V48.5491C64.3289 50.1542 69.6727 50.9135 74.777 50.9135C79.8813 50.9135 85.2251 50.1542 88.4595 48.5491V50.891ZM74.777 47.9063C65.8967 47.9063 61.3397 45.7167 61.0945 44.9255V44.9161C61.3397 44.0778 65.8967 41.8901 74.777 41.8901C83.5946 41.8901 88.1554 44.0459 88.4595 44.8973C88.1554 45.7506 83.5946 47.9063 74.777 47.9063Z" fill="url(#paint3_linear)"/>
<path d="M26.128 58.6459H14.6347L9.1864 52.7518V42.9785L15.2029 37.167H26.1261C26.8463 37.167 27.4297 36.59 27.4297 35.8777C27.4297 35.1654 26.8463 34.5884 26.1261 34.5884H14.6746C14.3344 34.5884 14.0076 34.7181 13.7624 34.953L6.97059 41.5049C6.71785 41.7981 6.57722 42.1721 6.57912 42.5574V53.2518C6.57912 53.5732 6.70074 53.8833 6.91928 54.1201L13.0954 60.8017C13.3425 61.0686 13.6921 61.2209 14.057 61.2209H26.1242C26.8444 61.2209 27.4278 60.6438 27.4278 59.9315C27.4278 59.2192 26.8463 58.6459 26.128 58.6459Z" fill="#002476"/>
<path d="M39.0505 46.403H37.5302C37.057 46.403 36.77 46.1417 36.77 46.0271C36.77 45.9124 37.057 45.6512 37.5302 45.6512H41.3309C42.1708 45.6512 42.8512 44.9783 42.8512 44.1476C42.8512 43.3168 42.1708 42.644 41.3309 42.644H39.8106C39.8106 41.8132 39.1303 41.1404 38.2903 41.1404C37.4504 41.1404 36.77 41.8132 36.77 42.644V42.7116C35.0844 42.9466 33.8055 44.3374 33.7295 46.0195C33.8378 47.9911 35.5367 49.506 37.5302 49.4102H39.0505C39.5237 49.4102 39.8106 49.6714 39.8106 49.7861C39.8106 49.9007 39.5237 50.162 39.0505 50.162H35.2498C34.4098 50.162 33.7295 50.8348 33.7295 51.6656C33.7295 52.4963 34.4098 53.1691 35.2498 53.1691H36.77C36.77 53.9999 37.4504 54.6727 38.2903 54.6727C39.1303 54.6727 39.8106 53.9999 39.8106 53.1691V53.1015C41.4962 52.8665 42.7751 51.4757 42.8512 49.7936C42.7409 47.822 41.0439 46.3071 39.0505 46.403Z" fill="#002476"/>
</g>
<defs>
<linearGradient id="paint0_linear" x1="15.6226" y1="28.574" x2="66.5745" y2="80.4911" gradientUnits="userSpaceOnUse">
<stop stop-color="#002476"/>
<stop offset="0.229167" stop-color="#063D8D"/>
<stop offset="0.526042" stop-color="#05579C"/>
<stop offset="0.990402" stop-color="#00A6E6"/>
</linearGradient>
<linearGradient id="paint1_linear" x1="16.3238" y1="9.02759" x2="32.971" y2="43.4395" gradientUnits="userSpaceOnUse">
<stop stop-color="#002476"/>
<stop offset="0.229167" stop-color="#063D8D"/>
<stop offset="0.526042" stop-color="#05579C"/>
<stop offset="0.990402" stop-color="#00A6E6"/>
</linearGradient>
<linearGradient id="paint2_linear" x1="28.3494" y1="1.34053e-06" x2="51.1963" y2="27.3926" gradientUnits="userSpaceOnUse">
<stop stop-color="#002476"/>
<stop offset="0.229167" stop-color="#063D8D"/>
<stop offset="0.526042" stop-color="#05579C"/>
<stop offset="0.990402" stop-color="#00A6E6"/>
</linearGradient>
<linearGradient id="paint3_linear" x1="64.4879" y1="38.8848" x2="103.886" y2="52.6082" gradientUnits="userSpaceOnUse">
<stop stop-color="#002476"/>
<stop offset="0.229167" stop-color="#063D8D"/>
<stop offset="0.526042" stop-color="#05579C"/>
<stop offset="0.990402" stop-color="#00A6E6"/>
</linearGradient>
<clipPath id="clip0">
<rect width="91" height="87" fill="white" transform="translate(0.5)"/>
</clipPath>
</defs>
</svg>
