<svg width="10" height="8" viewBox="0 0 10 8" fill="none" xmlns="http://www.w3.org/2000/svg">
<path d="M4.62946 7.2984C4.67075 7.36057 4.72599 7.41141 4.79043 7.44653C4.85488 7.48165 4.92659 7.5 4.99939 7.5C5.07219 7.5 5.1439 7.48165 5.20835 7.44653C5.27279 7.41141 5.32803 7.36057 5.36932 7.2984L9.41964 1.23215C9.46652 1.16218 9.49401 1.08023 9.49913 0.995195C9.50424 0.910163 9.48679 0.825302 9.44866 0.749833C9.41053 0.674365 9.35318 0.611175 9.28284 0.567129C9.21251 0.523083 9.13188 0.499866 9.04971 0.500001H0.949073C0.867096 0.500352 0.786762 0.523867 0.716711 0.568019C0.64666 0.61217 0.589541 0.675286 0.551498 0.75058C0.513454 0.825874 0.495926 0.910497 0.500797 0.995348C0.505668 1.0802 0.532755 1.16207 0.579144 1.23215L4.62946 7.2984Z" fill="white"/>
</svg>
