<svg width="30" height="29" viewBox="0 0 30 29" fill="none" xmlns="http://www.w3.org/2000/svg">
<path d="M19.9775 1.10278C12.5339 -1.5172 4.36632 2.39765 1.74634 9.84129C-0.873632 17.2849 3.04122 25.4525 10.4849 28.0725C17.9285 30.6924 26.0961 26.7776 28.716 19.334C31.336 11.8903 27.4211 3.72275 19.9775 1.10278ZM9.54062 19.0864L6.40349 12.5414C6.32259 12.3726 6.27572 12.1895 6.26557 12.0026C6.25542 11.8157 6.28218 11.6286 6.34432 11.4521C6.40647 11.2755 6.50278 11.1129 6.62776 10.9736C6.75274 10.8343 6.90394 10.7209 7.07272 10.64C7.24151 10.5591 7.42458 10.5122 7.61148 10.5021C7.79838 10.4919 7.98545 10.5187 8.16201 10.5808C8.33857 10.643 8.50115 10.7393 8.64049 10.8643C8.77983 10.9893 8.89318 11.1405 8.97409 11.3092L11.5043 16.5646L24.0473 10.5525C24.3882 10.3891 24.78 10.3678 25.1366 10.4933C25.4932 10.6188 25.7853 10.8808 25.9487 11.2217C26.1121 11.5626 26.1333 11.9544 26.0078 12.311C25.8823 12.6676 25.6203 12.9597 25.2794 13.1231L11.442 19.7556C11.2732 19.8367 11.0901 19.8837 10.9032 19.894C10.7162 19.9042 10.5291 19.8775 10.3525 19.8153C10.1759 19.7532 10.0133 19.6568 9.87396 19.5317C9.73464 19.4066 9.62137 19.2553 9.54062 19.0864Z" fill="#00A674"/>
</svg>
