<svg width="55" height="88" viewBox="0 0 55 88" fill="none" xmlns="http://www.w3.org/2000/svg">
<g clip-path="url(#clip0)">
<path d="M48.0714 0H6.92857C3.38343 0 0.5 2.89094 0.5 6.44531V81.5547C0.5 85.1091 3.38343 88 6.92857 88H48.0714C51.6166 88 54.5 85.1091 54.5 81.5547V6.44531C54.5 2.89094 51.6166 0 48.0714 0ZM51.9286 81.5547C51.9286 83.6877 50.1989 85.4219 48.0714 85.4219H6.92857C4.80114 85.4219 3.07143 83.6877 3.07143 81.5547V6.44531C3.07143 4.31234 4.80114 2.57812 6.92857 2.57812H48.0714C50.1989 2.57812 51.9286 4.31234 51.9286 6.44531V81.5547Z" fill="url(#paint0_linear)"/>
<path d="M27.5 75.0234C25.3725 75.0234 23.6428 76.7577 23.6428 78.8906C23.6428 81.0236 25.3725 82.7578 27.5 82.7578C29.6274 82.7578 31.3571 81.0236 31.3571 78.8906C31.3571 76.7577 29.6274 75.0234 27.5 75.0234ZM27.5 80.1797C26.7902 80.1797 26.2142 79.6022 26.2142 78.8906C26.2142 78.1791 26.7902 77.6016 27.5 77.6016C28.2097 77.6016 28.7857 78.1791 28.7857 78.8906C28.7857 79.6022 28.2097 80.1797 27.5 80.1797Z" fill="url(#paint1_linear)"/>
<path d="M48.6182 5.92625C48.1314 5.42953 47.48 5.15625 46.7857 5.15625H8.21425C6.79654 5.15625 5.64282 6.31297 5.64282 7.73438V69.9531C5.64282 70.5547 5.85368 71.1391 6.23768 71.6014C6.72797 72.1927 7.44796 72.5312 8.21425 72.5312C8.92396 72.5312 9.49996 71.9538 9.49996 71.2422C9.49996 70.5306 8.92396 69.9531 8.21425 69.9531V7.73438H46.7857V69.9531H13.3571C12.6474 69.9531 12.0714 70.5306 12.0714 71.2422C12.0714 71.9538 12.6474 72.5312 13.3571 72.5312H46.7857C48.2034 72.5312 49.3571 71.3745 49.3571 69.9531V7.73438C49.3571 7.05375 49.0948 6.41266 48.6182 5.92625Z" fill="#002476"/>
<path d="M38.2041 26.5461C35.2366 23.9473 31.4344 22.5156 27.5001 22.5156C18.5206 22.5156 11.2144 29.8409 11.2144 38.8438C11.2144 47.8466 18.5206 55.1719 27.5001 55.1719C36.4795 55.1719 43.7858 47.8466 43.7858 38.8438C43.7858 34.1361 41.7509 29.6536 38.2041 26.5461ZM27.5001 52.5938C19.9384 52.5938 13.7858 46.4252 13.7858 38.8438C13.7858 31.2623 19.9384 25.0938 27.5001 25.0938C30.8121 25.0938 34.0126 26.2986 36.5121 28.4883C39.5001 31.1059 41.2144 34.8803 41.2144 38.8438C41.2144 46.4252 35.0618 52.5938 27.5001 52.5938Z" fill="url(#paint2_linear)"/>
<path d="M23.2315 46.2945C20.5778 44.7563 18.9286 41.9014 18.9286 38.8438C18.9286 38.1339 18.3526 37.5547 17.6429 37.5547C16.9349 37.5547 16.3572 38.1339 16.3572 38.8438C16.3572 40.8409 16.892 42.8003 17.9018 44.5139C18.8823 46.1759 20.2812 47.5647 21.9475 48.5272C22.1429 48.6406 22.364 48.6991 22.5886 48.6991C23.0463 48.6991 23.4749 48.4533 23.7029 48.0545C24.0578 47.4392 23.8452 46.6486 23.2315 46.2945Z" fill="#002476"/>
<path d="M27.5001 27.6719C26.7904 27.6719 26.2144 28.2494 26.2144 28.9609C26.2144 29.6725 26.7904 30.25 27.5001 30.25C32.2264 30.25 36.0715 34.1052 36.0715 38.8438C36.0715 43.5823 32.2264 47.4375 27.5001 47.4375C26.7904 47.4375 26.2144 48.015 26.2144 48.7266C26.2144 49.4381 26.7904 50.0156 27.5001 50.0156C33.6441 50.0156 38.6429 45.0037 38.6429 38.8438C38.6429 32.6838 33.6441 27.6719 27.5001 27.6719Z" fill="#002476"/>
<path d="M27.4999 37.5117C27.1451 37.5117 26.8571 37.223 26.8571 36.8672C26.8571 36.5114 27.1451 36.2227 27.4999 36.2227H29.1714C29.8811 36.2227 30.4571 35.6452 30.4571 34.9336C30.4571 34.222 29.8811 33.6445 29.1714 33.6445H28.7428C28.7428 32.933 28.1668 32.3555 27.4571 32.3555C26.7474 32.3555 26.1714 32.9312 26.1714 33.6445V33.9367C25.0605 34.4455 24.2856 35.5661 24.2856 36.8672C24.2856 38.6444 25.7274 40.0898 27.4999 40.0898C27.8548 40.0898 28.1428 40.3786 28.1428 40.7344C28.1428 41.0902 27.8548 41.3789 27.4999 41.3789H25.5714C24.8616 41.3789 24.2856 41.9564 24.2856 42.668C24.2856 43.3795 24.8616 43.957 25.5714 43.957H26.1714V44.043C26.1714 44.7545 26.7474 45.332 27.4571 45.332C28.1668 45.332 28.7428 44.7545 28.7428 44.043V43.7061C29.8999 43.218 30.7125 42.0698 30.7125 40.7344C30.7142 38.9572 29.2725 37.5117 27.4999 37.5117Z" fill="#002476"/>
</g>
<defs>
<linearGradient id="paint0_linear" x1="10.8879" y1="6.69479e-06" x2="76.0546" y2="20.0381" gradientUnits="userSpaceOnUse">
<stop stop-color="#002476"/>
<stop offset="0.229167" stop-color="#063D8D"/>
<stop offset="0.526042" stop-color="#05579C"/>
<stop offset="0.990402" stop-color="#00A6E6"/>
</linearGradient>
<linearGradient id="paint1_linear" x1="25.1268" y1="75.0234" x2="33.2799" y2="79.0983" gradientUnits="userSpaceOnUse">
<stop stop-color="#002476"/>
<stop offset="0.229167" stop-color="#063D8D"/>
<stop offset="0.526042" stop-color="#05579C"/>
<stop offset="0.990402" stop-color="#00A6E6"/>
</linearGradient>
<linearGradient id="paint2_linear" x1="17.4801" y1="22.5156" x2="51.9045" y2="39.7207" gradientUnits="userSpaceOnUse">
<stop stop-color="#002476"/>
<stop offset="0.229167" stop-color="#063D8D"/>
<stop offset="0.526042" stop-color="#05579C"/>
<stop offset="0.990402" stop-color="#00A6E6"/>
</linearGradient>
<clipPath id="clip0">
<rect width="54" height="88" fill="white" transform="translate(0.5)"/>
</clipPath>
</defs>
</svg>
