<svg width="24" height="20" viewBox="0 0 24 20" fill="none" xmlns="http://www.w3.org/2000/svg">
<path d="M21 0H3C2.20461 0.000902401 1.44204 0.336419 0.879619 0.93293C0.317195 1.52944 0.000850835 2.33822 0 3.18182V16.8182C0.000850835 17.6618 0.317195 18.4706 0.879619 19.0671C1.44204 19.6636 2.20461 19.9991 3 20H21C21.7954 19.9991 22.558 19.6636 23.1204 19.0671C23.6828 18.4706 23.9991 17.6618 24 16.8182V3.18182C23.9991 2.33822 23.6828 1.52944 23.1204 0.93293C22.558 0.336419 21.7954 0.000902401 21 0V0ZM20.2404 5.26307L12.5261 11.6267C12.3756 11.7507 12.1905 11.8181 12 11.8181C11.8095 11.8181 11.6244 11.7507 11.4739 11.6267L3.75964 5.26307C3.66901 5.19047 3.59288 5.0995 3.53568 4.99543C3.47848 4.89136 3.44135 4.77627 3.42646 4.65685C3.41156 4.53743 3.41918 4.41607 3.44889 4.2998C3.4786 4.18353 3.5298 4.07469 3.59952 3.97959C3.66923 3.88449 3.75607 3.80504 3.85499 3.74585C3.95391 3.68665 4.06293 3.6489 4.17572 3.63478C4.28852 3.62066 4.40283 3.63045 4.51203 3.6636C4.62122 3.69674 4.72311 3.75257 4.81179 3.82784L12 9.75739L19.1882 3.82784C19.368 3.68388 19.5939 3.62073 19.8172 3.65207C20.0405 3.68341 20.2432 3.8067 20.3814 3.9953C20.5197 4.18389 20.5824 4.42262 20.556 4.65986C20.5296 4.89711 20.4162 5.1138 20.2404 5.26307Z" fill="white"/>
</svg>
