<svg width="61" height="59" viewBox="0 0 61 59" fill="none" xmlns="http://www.w3.org/2000/svg">
<path d="M33.3084 48.6754C29.3294 49.9798 25.0529 50.075 21.0198 48.9489C16.9867 47.8229 13.3781 45.5261 10.6503 42.3492C7.92256 39.1722 6.1981 35.2578 5.69504 31.1007C5.19198 26.9437 5.93292 22.7309 7.82415 18.995C9.71539 15.2591 12.672 12.1679 16.32 10.1123C19.9681 8.0567 24.1438 7.12906 28.3191 7.44666C32.4944 7.76426 36.4817 9.31284 39.7769 11.8966C43.072 14.4803 45.527 17.9832 46.8314 21.9622L26.7133 28.5572L33.3084 48.6754Z" fill="#9FC8FE" fill-opacity="0.5"/>
<path d="M51.472 24.3443C53.2386 29.6742 52.8155 35.4876 50.2959 40.5056C47.7762 45.5235 43.3663 49.3351 38.0364 51.1016L31.3756 31.0051L51.472 24.3443Z" fill="#F39893" fill-opacity="0.5"/>
</svg>
