<svg width="72" height="61" viewBox="0 0 72 61" fill="none" xmlns="http://www.w3.org/2000/svg">
<path d="M7 38.2132C30.0298 47.7919 59.2247 18.4272 70.9434 2.54752C71.9624 8.49179 70.8924 22.1636 58.4604 29.2967C60.6683 29.042 64.8293 30.4177 63.8103 37.9584C61.9421 36.5148 56.7281 34.239 50.8178 36.6846C43.4299 39.7417 31.7501 49.5001 7 38.2132Z" fill="black"/>
<path d="M30.6922 33.6276C15.2031 28.3287 13.5387 9.00133 14.6426 0C23.2024 12.2282 37.2309 22.0787 43.1751 25.4755L30.6922 33.6276Z" fill="black"/>
<path d="M64 57.3256V47V57C64 58.6569 62.6569 60 61 60H4C2.34315 60 1 58.6569 1 57V35C1 33.3431 2.34315 32 4 32H20.8145" stroke="black" stroke-width="1.5" stroke-linecap="round"/>
</svg>
