<svg width="52" height="52" viewBox="0 0 52 52" fill="none" xmlns="http://www.w3.org/2000/svg">
<circle cx="26" cy="26" r="26" transform="rotate(90 26 26)" fill="#002476" fill-opacity="0.5"/>
<path d="M36.2427 31.5537C36.3771 31.4132 36.4838 31.2462 36.5565 31.0624C36.6293 30.8786 36.6667 30.6816 36.6667 30.4826C36.6667 30.2836 36.6293 30.0866 36.5565 29.9028C36.4838 29.719 36.3771 29.552 36.2427 29.4115L26.6476 19.3539C26.5408 19.2417 26.4139 19.1527 26.2742 19.092C26.1345 19.0313 25.9848 19 25.8336 19C25.6823 19 25.5326 19.0313 25.3929 19.092C25.2532 19.1527 25.1264 19.2417 25.0195 19.3539L15.4244 29.4115C14.8586 30.0045 14.8586 30.9607 15.4244 31.5537C15.9902 32.1467 16.9024 32.1467 17.4681 31.5537L25.8393 22.7912L34.2105 31.5658C34.7648 32.1467 35.6885 32.1467 36.2427 31.5537Z" fill="white"/>
</svg>
