<svg width="79" height="88" viewBox="0 0 79 88" fill="none" xmlns="http://www.w3.org/2000/svg">
<g clip-path="url(#clip0)">
<path d="M39.5 35.75C42.0119 35.75 44.3356 36.9411 44.9091 38.5223C44.9886 38.7406 45.0284 38.9641 45.0284 39.1875C45.0284 41.4614 46.889 43.3125 49.1747 43.3125C51.4603 43.3125 53.321 41.4614 53.321 39.1875C53.321 38.0102 53.1154 36.8448 52.7094 35.7242C51.3497 31.9688 47.9688 29.1483 43.5581 28.0328C43.166 26.1611 41.4954 24.75 39.4982 24.75C37.5063 24.75 35.8374 26.1559 35.4418 28.0225C32.8728 28.6928 30.5543 29.9973 28.8319 31.7625C26.7985 33.8439 25.679 36.4822 25.679 39.1875C25.679 45.6311 31.8794 50.875 39.5 50.875C42.1104 50.875 45.0284 52.3445 45.0284 54.3125C45.0284 56.2805 42.1104 57.75 39.5 57.75C36.8895 57.75 33.9716 56.2805 33.9716 54.3125C33.9716 52.0386 32.1109 50.1875 29.8253 50.1875C27.5396 50.1875 25.679 52.0386 25.679 54.3125C25.679 57.0178 26.7985 59.6561 28.8336 61.7392C30.556 63.5027 32.8745 64.8089 35.4435 65.4792C35.8391 67.3441 37.508 68.75 39.5 68.75C41.4919 68.75 43.1608 67.3441 43.5564 65.4775C46.1254 64.8089 48.4439 63.5027 50.1663 61.7375C52.2015 59.6561 53.321 57.0178 53.321 54.3125C53.321 47.8689 47.1205 42.625 39.5 42.625C36.8912 42.625 33.9716 41.1555 33.9716 39.1875C33.9716 37.2195 36.8912 35.75 39.5 35.75ZM39.5 45.375C45.5967 45.375 50.5568 49.3848 50.5568 54.3125C50.5568 58.4134 46.9598 62.0709 42.0067 63.0094C41.3554 63.1331 40.8821 63.7003 40.8821 64.3603V64.625C40.8821 65.383 40.2618 66 39.5 66C38.7381 66 38.1179 65.383 38.1179 64.625V64.3586C38.1179 63.6986 37.6462 63.1314 36.9932 63.0077C32.0401 62.0709 28.4432 58.4134 28.4432 54.3125C28.4432 53.5545 29.0634 52.9375 29.8253 52.9375C30.5871 52.9375 31.2074 53.5545 31.2074 54.3125C31.2074 57.7242 34.9269 60.5 39.5 60.5C44.073 60.5 47.7926 57.7242 47.7926 54.3125C47.7926 50.9008 44.073 48.125 39.5 48.125C33.4032 48.125 28.4432 44.1152 28.4432 39.1875C28.4432 35.0848 32.0401 31.4291 36.9932 30.4906C37.6445 30.3669 38.1179 29.7997 38.1179 29.1397V28.875C38.1179 28.117 38.7381 27.5 39.5 27.5C40.2618 27.5 40.8821 28.117 40.8821 28.875V29.1569C40.8821 29.8186 41.3572 30.3875 42.0102 30.5078C45.8939 31.228 48.9967 33.5844 50.1093 36.6558C50.4065 37.4756 50.5568 38.3281 50.5568 39.1875C50.5568 39.9455 49.9365 40.5625 49.1747 40.5625C48.4128 40.5625 47.7926 39.9455 47.7926 39.1875C47.7926 38.6444 47.6975 38.1064 47.5092 37.5891C46.5314 34.8872 43.2368 33 39.5 33C34.9269 33 31.2074 35.7758 31.2074 39.1875C31.2074 42.5992 34.9269 45.375 39.5 45.375Z" fill="url(#paint0_linear)"/>
<path d="M71.2849 12.3819H59.5405C55.6862 12.3819 51.8595 11.232 48.4751 9.05953C45.2513 6.98844 42.5666 4.10437 40.7146 0.718437C40.4727 0.275 40.0063 0 39.5001 0C38.9939 0 38.5274 0.275 38.2855 0.716719C36.4318 4.10266 33.7488 6.98672 30.5233 9.05781C27.1406 11.232 23.3139 12.3819 19.4596 12.3819H7.71522C3.90408 12.3819 0.80127 15.467 0.80127 19.2603V37.125C0.80127 45.8253 2.81914 53.9189 6.80131 61.1806C9.98014 66.978 14.4063 72.2528 19.9572 76.8539C29.3779 84.6639 38.6725 87.8006 39.063 87.9295C39.2046 87.9759 39.3532 88 39.5001 88C39.6452 88 39.792 87.9777 39.932 87.9313C40.3224 87.8041 49.6188 84.7086 59.0412 76.9192C64.5938 72.3302 69.02 67.0588 72.1988 61.2528C76.181 53.9825 78.1989 45.8648 78.1989 37.125V19.2603C78.1989 15.467 75.0978 12.3819 71.2849 12.3819ZM75.4347 37.125C75.4347 45.3802 73.5395 53.0372 69.7991 59.8864C66.8 65.3795 62.6105 70.3777 57.3482 74.7433C49.4443 81.2986 41.4298 84.4628 39.5035 85.1658C37.5755 84.4542 29.5593 81.2556 21.6537 74.6814C16.3896 70.3037 12.2001 65.3005 9.20098 59.8142C5.46067 52.9736 3.56547 45.3406 3.56547 37.125V19.2603C3.56547 16.983 5.42785 15.1319 7.71522 15.1319H19.4596C23.8461 15.1319 28.191 13.8308 32.0246 11.3695C34.9823 9.47031 37.534 6.95922 39.5001 4.03047C41.4661 6.95922 44.0178 9.47031 46.9755 11.3695C50.8091 13.8308 55.1523 15.1319 59.5405 15.1319H71.2849C73.574 15.1319 75.4347 16.9847 75.4347 19.2603V37.125Z" fill="url(#paint1_linear)"/>
<path d="M71.2883 26.125C70.5247 26.125 69.9062 26.7403 69.9062 27.5V30.2569C69.9062 31.0166 70.5247 31.6319 71.2883 31.6319C72.052 31.6319 72.6704 31.0166 72.6704 30.2569V27.5C72.6704 26.7403 72.052 26.125 71.2883 26.125Z" fill="url(#paint2_linear)"/>
<path d="M71.2883 17.8854L59.5404 17.882C52.7802 17.882 45.8317 14.826 40.4778 9.49791C40.3932 9.41369 40.2981 9.3415 40.1997 9.28307C40.1997 9.28307 40.1979 9.28307 40.1979 9.28135C40.1979 9.28135 40.1962 9.28135 40.1962 9.27963C40.1962 9.27963 40.1962 9.27963 40.1945 9.27963C40.1945 9.27963 40.1928 9.27963 40.1928 9.27791L40.191 9.27619C40.191 9.27619 40.1893 9.27619 40.1893 9.27447L40.1876 9.27275C39.9854 9.1576 39.7609 9.09744 39.5345 9.09229C39.5328 9.09229 39.5311 9.09229 39.5294 9.09229C39.5276 9.09229 39.5259 9.09229 39.5259 9.09229C39.5242 9.09229 39.5224 9.09229 39.5224 9.09229C39.5155 9.09229 39.5086 9.09229 39.5017 9.09229C39.4948 9.09229 39.4879 9.09229 39.481 9.09229C39.4793 9.09229 39.4775 9.09229 39.4775 9.09229C39.4758 9.09229 39.4758 9.09229 39.4741 9.09229C39.246 9.09744 39.018 9.1576 38.8141 9.27447C38.8141 9.27447 38.8124 9.27447 38.8124 9.27619C38.8124 9.27619 38.8107 9.27619 38.8107 9.27791L38.8089 9.27963C38.8089 9.27963 38.8072 9.27963 38.8072 9.28135C38.8072 9.28135 38.8055 9.28135 38.8055 9.28307L38.8038 9.28478L38.802 9.2865C38.7035 9.34494 38.6103 9.41541 38.5256 9.49963C33.1717 14.8278 26.2232 17.8837 19.463 17.8837H7.71514C6.95153 17.8837 6.33305 18.499 6.33305 19.2587L6.32959 37.1251C6.32959 51.1157 12.01 62.982 23.2137 72.3921C29.4487 77.6292 35.7666 80.6593 38.9782 81.9999C39.1493 82.0721 39.3307 82.1065 39.5138 82.1065C39.6935 82.1065 39.8749 82.0721 40.0442 82.0017C43.2524 80.6765 49.5651 77.6721 55.7967 72.4523C66.9917 63.0696 72.6704 51.1845 72.6704 37.1251V35.7501C72.6704 34.9904 72.0519 34.3751 71.2883 34.3751C70.5247 34.3751 69.9062 34.9904 69.9062 35.7501V37.1251C69.9062 50.3354 64.5592 61.5124 54.0138 70.3485C48.3955 75.0562 42.7065 77.8749 39.5155 79.2379C36.3194 77.8595 30.6234 75.0167 24.9983 70.2918C14.4442 61.4282 9.09379 50.2684 9.09379 37.1251L9.09724 20.632H19.4595C26.5393 20.632 33.7729 17.6379 39.5 12.3768C45.2271 17.6379 52.4606 20.632 59.5404 20.632L69.9062 20.6354V22.0001C69.9062 22.7598 70.5247 23.3751 71.2883 23.3751C72.0519 23.3751 72.6704 22.7598 72.6704 22.0001V19.2604C72.6704 18.5007 72.0519 17.8854 71.2883 17.8854Z" fill="url(#paint3_linear)"/>
</g>
<defs>
<linearGradient id="paint0_linear" x1="30.9964" y1="24.75" x2="64.2164" y2="35.2077" gradientUnits="userSpaceOnUse">
<stop stop-color="#002476"/>
<stop offset="0.229167" stop-color="#063D8D"/>
<stop offset="0.526042" stop-color="#05579C"/>
<stop offset="0.990402" stop-color="#00A6E6"/>
</linearGradient>
<linearGradient id="paint1_linear" x1="15.6901" y1="6.69479e-06" x2="101.296" y2="37.7284" gradientUnits="userSpaceOnUse">
<stop stop-color="#002476"/>
<stop offset="0.229167" stop-color="#063D8D"/>
<stop offset="0.526042" stop-color="#05579C"/>
<stop offset="0.990402" stop-color="#00A6E6"/>
</linearGradient>
<linearGradient id="paint2_linear" x1="70.438" y1="26.125" x2="73.872" y2="26.9887" gradientUnits="userSpaceOnUse">
<stop stop-color="#002476"/>
<stop offset="0.229167" stop-color="#063D8D"/>
<stop offset="0.526042" stop-color="#05579C"/>
<stop offset="0.990402" stop-color="#00A6E6"/>
</linearGradient>
<linearGradient id="paint3_linear" x1="19.0915" y1="9.09229" x2="91.6746" y2="42.139" gradientUnits="userSpaceOnUse">
<stop stop-color="#002476"/>
<stop offset="0.229167" stop-color="#063D8D"/>
<stop offset="0.526042" stop-color="#05579C"/>
<stop offset="0.990402" stop-color="#00A6E6"/>
</linearGradient>
<clipPath id="clip0">
<rect width="77.3976" height="88" fill="white" transform="translate(0.80127)"/>
</clipPath>
</defs>
</svg>
