<svg width="98" height="118" viewBox="0 0 98 118" fill="none" xmlns="http://www.w3.org/2000/svg">
<path d="M77.8605 51.4476C78.7914 51.6389 79.6994 51.0351 79.8897 50.0971C80.3138 48.0021 80.5294 45.8472 80.5294 43.6924C80.5294 26.1629 66.385 11.9038 48.9985 11.9038C31.6121 11.9038 17.47 26.1629 17.47 43.6901C17.47 61.2172 31.6144 75.4786 49.0008 75.4786C60.8501 75.4786 71.592 68.878 77.0328 58.2557C77.4684 57.4052 77.1383 56.3589 76.2945 55.9187C75.4508 55.4785 74.4121 55.8127 73.9765 56.6631C69.1295 66.1285 59.5569 72.01 49.0008 72.01C33.5105 72.01 20.9092 59.3043 20.9092 43.6877C20.9092 28.0712 33.5128 15.3701 49.0008 15.3701C64.4888 15.3701 77.0924 28.0758 77.0924 43.6924C77.0924 45.6145 76.8998 47.5366 76.5215 49.4011C76.3312 50.3391 76.9319 51.254 77.8605 51.4476Z" fill="#FFCC00"/>
<path d="M68.1366 37.2412C67.9349 36.6121 67.3938 36.1534 66.7449 36.0612L55.5353 34.4433L50.5438 24.1967C49.9729 22.9222 48.0263 22.9245 47.4554 24.1967L42.4639 34.4433L31.2544 36.0612C29.8764 36.2157 29.2757 38.0825 30.3005 39.0205L38.424 46.9716L36.4866 58.2185C36.2046 59.5829 37.7774 60.7421 38.9834 60.0484L48.9962 54.7154L59.0089 60.0484C60.2127 60.7421 61.7901 59.5829 61.5058 58.2185L59.5684 46.9716L67.6918 39.0205C68.1687 38.5618 68.3384 37.8704 68.1366 37.2412ZM56.5258 45.1233C56.1177 45.522 55.932 46.0982 56.0283 46.6628L57.5209 55.333L49.8033 51.2215C49.3011 50.9541 48.6981 50.9541 48.196 51.2215L40.4784 55.333L41.971 46.6628C42.0673 46.0982 41.8816 45.522 41.4734 45.1233L35.2095 38.9928L43.8511 37.7437C44.4128 37.663 44.9012 37.3058 45.1511 36.7918L48.9985 28.8914L52.8458 36.7918C53.0958 37.3058 53.5841 37.663 54.1459 37.7437L62.7875 38.9928L56.5258 45.1233Z" fill="#FFCC00"/>
<path d="M97.264 103.068L80.4553 73.7131C87.8153 65.8795 92.3367 55.3079 92.3367 43.69C92.3367 19.5991 72.8959 0 49.0001 0C41.647 0 34.3857 1.88984 27.9956 5.46672C27.1656 5.93226 26.8652 6.98781 27.3261 7.82441C27.787 8.66101 28.8348 8.96293 29.6648 8.49969C35.5459 5.20859 42.2317 3.46855 49.0001 3.46855C70.9997 3.46855 88.8952 21.512 88.8952 43.6923C88.8952 65.8703 70.9974 83.916 49.0001 83.916C27.0028 83.916 9.10506 65.8726 9.10506 43.6923C9.10506 31.7932 14.2891 20.5716 23.3274 12.9016C24.0542 12.284 24.1483 11.1916 23.5361 10.4587C22.9239 9.72578 21.8394 9.63129 21.1126 10.2489C11.297 18.5758 5.66584 30.7676 5.66584 43.69C5.66584 55.3263 10.2033 65.9141 17.5839 73.7523L12.824 82.0653C11.6822 83.9897 14.7018 85.7689 15.8024 83.7984L20.1312 76.2414C25.3084 80.913 31.6022 84.3515 38.5563 86.0939L23.7149 112.01L19.918 99.9635C19.6497 99.1085 18.7785 98.6037 17.9095 98.795L5.66354 101.503L11.7877 90.807C12.2623 89.9773 11.9803 88.9171 11.1571 88.4378C10.334 87.9584 9.28161 88.2419 8.807 89.0716L0.736274 103.174C-0.0295275 104.412 1.18567 106.096 2.59346 105.734L17.1139 102.524L21.6147 116.806C22.0091 118.212 24.0565 118.44 24.7421 117.147L42.1056 86.8268C44.3503 87.1909 46.6523 87.3822 48.9978 87.3822C51.3617 87.3822 53.6821 87.1863 55.9451 86.8176L66.3728 105.029C66.6915 105.585 67.2693 105.896 67.8631 105.896C68.1543 105.896 68.4501 105.82 68.7207 105.663C69.5438 105.184 69.8258 104.123 69.3512 103.294L59.4944 86.0824C66.4439 84.3331 72.7331 80.8876 77.9057 76.2091L92.3321 101.399L80.0862 98.6913C79.2172 98.5 78.3482 99.0071 78.0777 99.8598L74.2807 111.906L73.3636 110.302C72.889 109.473 71.8366 109.189 71.0135 109.669C70.1904 110.148 69.9083 111.208 70.3829 112.038L73.249 117.044C73.9368 118.336 75.9843 118.106 76.3764 116.702L80.8772 102.42L95.3976 105.631C96.8146 105.988 98.0298 104.308 97.264 103.068Z" fill="#FFCC00"/>
</svg>
