<svg width="105" height="88" viewBox="0 0 105 88" fill="none" xmlns="http://www.w3.org/2000/svg">
<g clip-path="url(#clip0)">
<path d="M85.0405 9.06282L83.9477 1.2758C83.8929 0.884316 83.6836 0.529347 83.3647 0.294053C83.0458 0.0567301 82.6477 -0.040633 82.2557 0.0181906L73.6635 1.33259C72.8551 1.45632 72.2985 2.21089 72.4224 3.02022C72.5463 3.82955 73.304 4.3833 74.1124 4.25957L79.1194 3.49284C72.4244 11.7586 65.2236 18.7991 57.6816 24.4401C51.1186 29.3488 44.2855 33.217 37.3712 35.9391C25.6021 40.5719 17.5665 40.2677 17.4872 40.2636C16.6687 40.2231 15.976 40.8539 15.9374 41.6713C15.8968 42.4888 16.5285 43.1825 17.3451 43.221C17.3938 43.2231 17.5949 43.2312 17.9422 43.2312C20.0791 43.2312 27.678 42.9046 38.271 38.7646C45.4555 35.9573 52.5446 31.9634 59.3432 26.8924C67.1554 21.0648 74.6019 13.789 81.5102 5.24537L82.1033 9.47052C82.2069 10.2109 82.8427 10.7464 83.5699 10.7464C83.639 10.7464 83.708 10.7423 83.7771 10.7322C84.5896 10.6206 85.1543 9.87215 85.0405 9.06282Z" fill="#002476"/>
<path d="M101.764 79.8499H89.7836C90.7708 79.1948 91.6991 78.4382 92.5542 77.5842C95.9302 74.213 97.7887 69.7323 97.7887 64.9635C97.7887 60.1968 95.9302 55.714 92.5542 52.3428C91.3517 51.142 90.0172 50.1542 88.5994 49.3672V43.3915C88.5994 42.5741 87.9352 41.9108 87.1166 41.9108C86.298 41.9108 85.6338 42.5741 85.6338 43.3915V48.0528C81.5753 46.6816 77.1695 46.8114 73.2066 48.4179V30.2333C73.2066 30.0426 73.363 29.8864 73.5539 29.8864H85.2844C85.4753 29.8864 85.6317 30.0426 85.6317 30.2333V33.9088C85.6317 34.7262 86.2959 35.3895 87.1145 35.3895C87.9331 35.3895 88.5973 34.7262 88.5973 33.9088V30.2333C88.5973 28.4098 87.1105 26.925 85.2844 26.925H73.5539C71.7278 26.925 70.2409 28.4098 70.2409 30.2333V49.9574C69.1908 50.6329 68.1955 51.426 67.2773 52.3428C63.9014 55.714 62.0428 60.1948 62.0428 64.9635C62.0428 69.7303 63.9014 74.213 67.2773 77.5842C68.1345 78.4402 69.0628 79.1968 70.048 79.8499H60.6859V43.6674C60.6859 41.8438 59.1991 40.3591 57.373 40.3591H45.6425C43.8164 40.3591 42.3295 41.8438 42.3295 43.6674V79.852H32.7745V55.8438C32.7745 54.0203 31.2877 52.5355 29.4616 52.5355H17.7352C15.9091 52.5355 14.4222 54.0203 14.4222 55.8438V79.8499H8.31625V3.71809C8.31625 2.21099 7.08938 0.98584 5.58016 0.98584H3.23609C1.72688 0.98584 0.5 2.21099 0.5 3.71809V14.2272C0.5 15.0447 1.16422 15.7079 1.98281 15.7079C2.80141 15.7079 3.46563 15.0447 3.46563 14.2272V3.9473H5.35266V80.0812C5.35266 81.5883 6.57953 82.8134 8.08875 82.8134H101.534V85.0406H3.46563V23.5822C3.46563 22.7647 2.80141 22.1015 1.98281 22.1015C1.16422 22.1015 0.5 22.7647 0.5 23.5822V85.2678C0.5 86.7749 1.72688 88 3.23609 88H101.766C103.275 88 104.502 86.7749 104.502 85.2678V82.5822C104.5 81.0751 103.273 79.8499 101.764 79.8499ZM29.815 79.8499H17.3878V55.8438C17.3878 55.6532 17.5442 55.497 17.7352 55.497H29.4656C29.6566 55.497 29.813 55.6532 29.813 55.8438L29.815 79.8499ZM45.2992 79.8499V43.6674C45.2992 43.4767 45.4556 43.3205 45.6466 43.3205H57.377C57.568 43.3205 57.7244 43.4767 57.7244 43.6674V79.852L45.2992 79.8499ZM86.4666 78.3367C84.9655 79.069 83.3344 79.5457 81.6708 79.7445C81.6423 79.7485 81.6159 79.7526 81.5875 79.7546C81.4738 79.7668 81.36 79.7789 81.2462 79.7891C81.0736 79.8053 80.8989 79.8175 80.7242 79.8276C80.6694 79.8317 80.6145 79.8317 80.5597 79.8357C80.3464 79.8438 80.1311 79.852 79.9178 79.852C79.7025 79.852 79.4872 79.8459 79.2739 79.8357C79.2069 79.8337 79.1378 79.8297 79.0708 79.8256C78.9083 79.8175 78.7478 79.8033 78.5873 79.7911C78.4533 79.7789 78.3213 79.7647 78.1892 79.7505C78.0938 79.7404 78.0003 79.7282 77.9048 79.7161C77.7688 79.6978 77.6347 79.6775 77.5006 79.6552C77.4823 79.6532 77.4661 79.6491 77.4478 79.6451C75.6989 79.3509 74.0089 78.7485 72.4692 77.8601C72.4611 77.856 72.453 77.852 72.4448 77.8479C71.3378 77.2049 70.308 76.4179 69.3777 75.4909C66.5623 72.6796 65.0105 68.9412 65.0105 64.9635C65.0105 60.9858 66.5603 57.2495 69.3777 54.4361C70.4563 53.3591 71.6608 52.4828 72.9425 51.8073C72.9791 51.7871 73.0156 51.7708 73.0522 51.7505C75.1972 50.641 77.5575 50.0832 79.9198 50.0832C81.8069 50.0832 83.6939 50.4402 85.4713 51.1481C85.5017 51.1603 85.5322 51.1724 85.5647 51.1846C85.7495 51.2597 85.9323 51.3408 86.1152 51.4219C86.1883 51.4544 86.2594 51.4889 86.3325 51.5234C87.8275 52.2333 89.227 53.2008 90.462 54.4341C96.2734 60.2394 96.2734 69.6836 90.462 75.4868C89.2941 76.6552 87.9636 77.6004 86.5234 78.3124C86.5031 78.3225 86.4848 78.3286 86.4666 78.3367Z" fill="url(#paint0_linear)"/>
<path d="M80.6063 63.5315V58.2597C82.4263 58.3895 83.1027 59.2212 83.7283 59.2212C84.5083 59.2212 84.874 58.2334 84.874 57.7405C84.874 56.4686 82.3776 55.923 80.6083 55.8703V55.1684C80.6083 54.8561 80.2183 54.5701 79.8283 54.5701C79.3855 54.5701 79.0747 54.8561 79.0747 55.1684V55.921C76.6027 56.1806 74.1327 57.4788 74.1327 60.7526C74.1327 64.0772 76.7347 65.0123 79.0747 65.8439V71.9474C76.4219 71.7405 75.7191 69.921 74.8619 69.921C74.2119 69.921 73.6655 70.779 73.6655 71.4017C73.6655 72.6735 75.8511 74.4159 79.0768 74.4666V75.2719C79.0768 75.5843 79.3896 75.8703 79.8304 75.8703C80.2204 75.8703 80.6104 75.5843 80.6104 75.2719V74.3895C83.4196 74.0001 85.3452 72.2334 85.3452 69.0386C85.3412 65.5052 82.8691 64.3611 80.6063 63.5315ZM79.2291 63.0366C77.8499 62.5173 76.7327 61.9717 76.7327 60.491C76.7327 59.14 77.7727 58.491 79.2291 58.3084V63.0366ZM80.4519 71.8946V66.4139C81.7255 66.9595 82.7412 67.6857 82.7412 69.3226C82.7391 70.8033 81.8555 71.635 80.4519 71.8946Z" fill="#002476"/>
</g>
<defs>
<linearGradient id="paint0_linear" x1="20.5067" y1="0.985846" x2="121.614" y2="61.5414" gradientUnits="userSpaceOnUse">
<stop stop-color="#002476"/>
<stop offset="0.229167" stop-color="#063D8D"/>
<stop offset="0.526042" stop-color="#05579C"/>
<stop offset="0.990402" stop-color="#00A6E6"/>
</linearGradient>
<clipPath id="clip0">
<rect width="104" height="88" fill="white" transform="translate(0.5)"/>
</clipPath>
</defs>
</svg>
