<svg width="85" height="89" viewBox="0 0 85 89" fill="none" xmlns="http://www.w3.org/2000/svg">
<path d="M82.1573 44.3334L80.0862 43.3245C80.1018 41.8705 80.0793 40.5505 80.0862 39.3078C80.0862 32.9123 78.4339 26.6286 75.3039 21.0736C76.0358 20.0252 76.0721 18.6261 75.3299 17.5227C72.5788 13.432 69.1253 9.92406 65.068 7.10016C62.4104 5.24906 59.533 3.72969 56.5138 2.58156C55.8442 2.32719 55.0951 2.65891 54.8373 3.32406C54.5812 3.98922 54.9151 4.73344 55.5847 4.98953C58.405 6.06203 61.0937 7.48172 63.5765 9.21078C67.3692 11.8525 70.5977 15.1302 73.1706 18.9544C73.3332 19.195 73.2951 19.513 73.0806 19.7089C72.8833 19.8636 68.5509 23.913 68.2879 24.0711C68.1564 24.1364 68.0284 24.1347 67.954 24.1244C67.8484 24.1106 67.6512 24.0539 67.5162 23.8408C65.812 21.12 63.6855 18.7052 61.194 16.6616C55.9169 12.3338 49.2435 9.94984 42.4057 9.94984C35.215 9.94984 28.2803 12.5555 22.8786 17.2872C20.7521 19.1503 18.9095 21.2987 17.399 23.6758C17.2744 23.8717 17.0858 23.9198 16.9837 23.9319C16.8782 23.9439 16.6723 23.937 16.4975 23.7634L11.9904 19.2878C11.7896 19.0884 11.762 18.7739 11.9229 18.5402C13.833 15.7833 16.1134 13.2928 18.7001 11.1409C25.3389 5.61859 33.7564 2.57812 42.4057 2.57812C44.7847 2.57812 47.1655 2.805 49.4805 3.25187C50.1847 3.38766 50.8647 2.93219 51.0014 2.23266C51.1381 1.53312 50.6796 0.857656 49.9754 0.721875C47.4977 0.242344 44.9491 0 42.4057 0C33.1491 0 24.1382 3.25531 17.0356 9.16438C14.2673 11.4658 11.8277 14.1281 9.78433 17.0775C9.00228 18.2067 9.05073 19.6883 9.85354 20.7608C8.56454 22.9573 7.50046 25.2708 6.68553 27.6547C6.45541 28.3284 6.81876 29.0606 7.497 29.2892C7.63541 29.3356 7.77556 29.358 7.91398 29.358C8.45553 29.358 8.95902 29.0194 9.14243 28.4831C9.82413 26.4877 10.6962 24.5437 11.7377 22.6841L14.5095 25.4375C12.3087 29.8134 11.1477 34.6844 11.1477 39.5966V66.4331L3.98121 62.9423C3.13687 62.5316 2.59185 61.6619 2.59185 60.7286V48.8606C2.59185 47.9273 3.13687 47.0577 3.98121 46.6469C4.41895 46.4148 5.30309 46.0316 6.03497 45.6466C6.82568 45.2255 7.31706 44.4091 7.31706 43.517V39.6103C7.3084 37.9517 7.4226 36.2777 7.65964 34.6345C7.76172 33.9298 7.26861 33.2767 6.55922 33.1753C5.84984 33.0739 5.19236 33.5638 5.09028 34.2684C4.83594 36.037 4.71136 37.8383 4.72174 39.6172V43.4191C4.39646 43.5978 3.31854 44.0808 2.79256 44.3541C1.09522 45.2083 0 46.97 0 48.8623V60.7303C0 62.6398 1.11599 64.4187 2.84273 65.2592L11.499 69.4753C12.4091 72.2184 15.0113 74.2036 18.072 74.2036C21.8889 74.2036 24.9929 71.1202 24.9929 67.3286V44.1427C24.9929 40.3528 21.8889 37.2677 18.072 37.2677C16.4422 37.2677 14.9438 37.8314 13.7604 38.7716C13.8832 34.5108 14.949 30.3067 16.873 26.5134C17.0045 26.5152 17.1377 26.51 17.2727 26.4945C18.2347 26.388 19.0807 25.862 19.5946 25.0525C20.9736 22.8834 22.6571 20.9223 24.5967 19.2208C29.5243 14.905 35.8482 12.528 42.4074 12.528C48.6448 12.528 54.73 14.7022 59.5434 18.6502C61.8169 20.515 63.7599 22.7202 65.3137 25.202C65.8224 26.0133 66.6581 26.5512 67.6062 26.6802C67.7498 26.6991 67.8917 26.7094 68.0353 26.7094C68.0976 26.7094 68.1599 26.7042 68.2222 26.7008C70.0856 30.4442 71.1203 34.5812 71.2414 38.7716C70.0579 37.8314 68.5595 37.2677 66.9297 37.2677C63.1146 37.2677 60.0089 40.3511 60.0089 44.1427V48.0081C60.0089 48.7197 60.5902 49.2972 61.3065 49.2972C62.0228 49.2972 62.6042 48.7197 62.6042 48.0081V44.1427C62.6042 41.7742 64.5437 39.8458 66.9297 39.8458C69.3157 39.8458 71.2552 41.7725 71.2552 44.1427V67.3286C71.2552 69.697 69.3157 71.6255 66.9297 71.6255C64.5437 71.6255 62.6042 69.6988 62.6042 67.3286V54.5067C62.6042 53.7952 62.0228 53.2177 61.3065 53.2177C60.5902 53.2177 60.0089 53.7952 60.0089 54.5067V67.3286C60.0089 71.1184 63.1128 74.2036 66.9297 74.2036C68.5647 74.2036 70.0683 73.6364 71.2552 72.6894V75.7608C71.2552 76.6889 70.4957 77.4434 69.5613 77.4434H54.0137C53.6088 76.2541 52.4772 75.3947 51.1467 75.3947H41.3347C39.6651 75.3947 38.3068 76.7439 38.3068 78.4025V84.9939C38.3068 86.6525 39.6651 88.0017 41.3347 88.0017H51.1467C52.4738 88.0017 53.6019 87.1475 54.0102 85.965H62.4346C63.1509 85.965 63.7323 85.3875 63.7323 84.6759C63.7323 83.9644 63.1509 83.3869 62.4346 83.3869H54.1729V80.0233H69.5596C71.9248 80.0233 73.8488 78.112 73.8488 75.7625V69.3086L77.2348 67.6586V79.1055C77.2348 81.467 75.3004 83.3869 72.9249 83.3869H68.9056C68.1893 83.3869 67.6079 83.9644 67.6079 84.6759C67.6079 85.3875 68.1893 85.965 68.9056 85.965H72.9249C76.7331 85.965 79.8301 82.8884 79.8301 79.1055V66.3953L82.1573 65.2627C83.884 64.4222 85 62.6433 85 60.7337V48.8658C85 46.9528 83.884 45.1756 82.1573 44.3334ZM18.072 39.8458C20.4563 39.8458 22.3976 41.7725 22.3976 44.1427V67.3286C22.3976 69.697 20.458 71.6255 18.072 71.6255C15.6861 71.6255 13.7465 69.6988 13.7465 67.3286V44.1427C13.7465 41.7725 15.6861 39.8458 18.072 39.8458ZM40.9004 84.9922V78.4025C40.9004 78.1653 41.0942 77.9728 41.333 77.9728H44.9422V85.4219H41.333C41.0942 85.4219 40.9004 85.2294 40.9004 84.9922ZM51.5775 84.9922C51.5775 85.2294 51.3838 85.4219 51.145 85.4219H47.5358V77.9728H51.145C51.3838 77.9728 51.5775 78.1653 51.5775 78.4025V84.9922ZM82.4047 60.7303C82.4047 61.6636 81.8597 62.5333 81.0153 62.9441L73.8488 66.4348C73.8488 63.1469 73.8488 42.2744 73.8488 39.5983C73.8488 34.7273 72.7069 29.8925 70.5424 25.5458L73.3782 22.947C76.0704 27.9589 77.4874 33.5723 77.4926 39.2837C77.484 40.3545 77.5099 41.7897 77.4909 43.5205C77.4822 44.373 77.9753 45.167 78.747 45.5434L81.0188 46.6486C81.8631 47.0594 82.4081 47.9291 82.4081 48.8623L82.4047 60.7303Z" fill="url(#paint0_linear)"/>
<path d="M54.1694 39.8011C54.076 38.6857 53.4203 37.7816 52.5015 37.498C52.0672 37.3639 50.9461 37.1938 49.882 38.4914C48.8923 39.698 43.9214 48.6183 42.9352 50.3938C42.7137 50.7925 42.7206 51.2789 42.9542 51.6725C43.1878 52.0661 43.6117 52.3067 44.0719 52.3067H51.5655C51.5551 53.6749 51.5447 54.9949 51.5361 56.1653C51.5291 56.8769 52.1053 57.4596 52.8216 57.4647H52.8337C53.5448 57.4647 54.1245 56.8941 54.1314 56.186C54.1348 55.7288 54.1487 54.2266 54.1625 52.305H55.1228C55.8391 52.305 56.4204 51.7275 56.4204 51.016C56.4204 50.3044 55.8391 49.7269 55.1228 49.7269H54.1798C54.2058 45.4008 54.2231 40.4319 54.1694 39.8011ZM51.5828 49.7269H46.2762C48.2244 46.2499 50.664 41.9805 51.6001 40.5419C51.6191 41.9564 51.607 45.7841 51.5828 49.7269Z" fill="url(#paint1_linear)"/>
<path d="M40.8415 56.2889C40.8328 55.5773 40.2515 55.0119 39.5283 55.017C37.1648 55.0463 34.6318 55.0634 32.8964 55.0548C33.8705 53.783 35.464 51.6706 37.9036 48.2073C39.0819 46.4714 39.9781 44.83 40.0958 42.9978C40.0958 39.8216 37.4935 37.2366 34.2961 37.2366C31.5312 37.2366 29.1366 39.1908 28.6055 41.8824C28.467 42.5802 28.9256 43.2591 29.628 43.3949C30.3322 43.5324 31.0139 43.0769 31.1506 42.3791C31.4447 40.8924 32.7666 39.8147 34.2944 39.8147C36.0367 39.8147 37.4572 41.2017 37.4987 42.9222C37.4001 44.0841 36.7599 45.2683 35.7754 46.7292C32.9812 50.6961 31.3115 52.8669 30.4153 54.0339C29.3495 55.4209 29.0276 55.8386 29.2629 56.5966C29.3962 57.0245 29.7249 57.3545 30.1661 57.5006C31.0693 57.7412 36.6354 57.6072 39.5594 57.5934C40.2757 57.5848 40.8502 57.0005 40.8415 56.2889Z" fill="url(#paint2_linear)"/>
<defs>
<linearGradient id="paint0_linear" x1="16.3513" y1="6.69492e-06" x2="107.318" y2="44.0278" gradientUnits="userSpaceOnUse">
<stop stop-color="#002476"/>
<stop offset="0.229167" stop-color="#063D8D"/>
<stop offset="0.526042" stop-color="#05579C"/>
<stop offset="0.990402" stop-color="#00A6E6"/>
</linearGradient>
<linearGradient id="paint1_linear" x1="45.3991" y1="37.4075" x2="61.5476" y2="42.9131" gradientUnits="userSpaceOnUse">
<stop stop-color="#002476"/>
<stop offset="0.229167" stop-color="#063D8D"/>
<stop offset="0.526042" stop-color="#05579C"/>
<stop offset="0.990402" stop-color="#00A6E6"/>
</linearGradient>
<linearGradient id="paint2_linear" x1="30.9394" y1="37.2366" x2="45.7886" y2="41.7072" gradientUnits="userSpaceOnUse">
<stop stop-color="#002476"/>
<stop offset="0.229167" stop-color="#063D8D"/>
<stop offset="0.526042" stop-color="#05579C"/>
<stop offset="0.990402" stop-color="#00A6E6"/>
</linearGradient>
</defs>
</svg>
