<svg width="22" height="13" viewBox="0 0 22 13" fill="none" xmlns="http://www.w3.org/2000/svg">
<path d="M21.2427 12.5537C21.3771 12.4132 21.4838 12.2462 21.5565 12.0624C21.6293 11.8786 21.6667 11.6816 21.6667 11.4826C21.6667 11.2836 21.6293 11.0866 21.5565 10.9028C21.4838 10.719 21.3771 10.552 21.2427 10.4115L11.6476 0.353943C11.5408 0.241744 11.4139 0.15273 11.2742 0.0919959C11.1345 0.0312616 10.9848 -4.66923e-07 10.8336 -4.73533e-07C10.6823 -4.80144e-07 10.5326 0.0312616 10.3929 0.0919959C10.2532 0.15273 10.1264 0.241744 10.0195 0.353943L0.424411 10.4115C-0.141367 11.0045 -0.141367 11.9607 0.424411 12.5537C0.990188 13.1467 1.90236 13.1467 2.46814 12.5537L10.8393 3.79117L19.2105 12.5658C19.7648 13.1467 20.6885 13.1467 21.2427 12.5537Z" fill="white"/>
</svg>
